<svg id="Layer_1" data-name="Layer 1" xmlns="http://www.w3.org/2000/svg" viewBox="0 0 331 104"><defs><style>.cls-1{font-size:49.1px;fill:#ed1c24;font-family:Silom, Silom;}</style></defs><title>Cerlogo</title><text class="cls-1" transform="matrix(0.92, 0, -0.4, 0.92, 25.03, 59.08)">Cerrajeria</text><path d="M327,53,306,28H280l8,1h18l20,24L306,72,89.68,71H87.77c.2,5.54-.76,10.51-3.31,14.41C78.35,94.76,64.91,98,52.38,98,27.32,98,7,78.75,7,55S25.94,8,51,8c4.44,0,11.74,7,18.67,17h3.6C65.8,13.35,57.52,5,52.5,5a47.5,47.5,0,0,0,0,95c13.12,0,27.19-3.58,33.59-13.91A26.47,26.47,0,0,0,89.66,73H306Z"/></svg>