<svg id="Layer_1" data-name="Layer 1" xmlns="http://www.w3.org/2000/svg" viewBox="0 0 335 113">
    <defs>
        <style>
            .cls-1,.cls-2{
            fill:#ed1c24;
            }
            .cls-2{
            stroke:#fff;
            stroke-miterlimit:10;
            stroke-width:0.25px;
            }
            .cls-3{
    animation-name: llave;
    animation-duration: 1s;
    animation-iteration-count: 1;
    animation-timing-function: linear;
            }
    @keyframes llave{
    0% {transform: rotateX(45deg);
        transform-origin: center center 0;
        }
    25% {transform: rotateX(90deg);
            transform-origin: center center 0;
        }
    50% {transform: rotateX(135deg);
            transform-origin: center center 0;
        }
    75% {transform: rotateX(210deg);
            transform-origin: center center 0;
        }
    90% {transform: rotateX(300deg);
            transform-origin: center center 0;
        }
    100% {transform: rotateX(360deg);
            transform-origin: center center 0;
        }
            }
        </style>
    </defs>
    <title>Cerlogo</title>
    <path class="cls-1" d="M61.54,67.56q-3.73,7.52-10.75,7.51H43.28A4.57,4.57,0,0,1,39,72.87q-1.27-2.2.09-5.31l8.17-18.72a12.71,12.71,0,0,1,4.49-5.29A10.87,10.87,0,0,1,58,41.33h7.51q7.06,0,4.19,7.51H66q1.2-3.78-2.09-3.78H60.12A5.45,5.45,0,0,0,57,46.16a6.36,6.36,0,0,0-2.27,2.68L46.56,67.56a2.92,2.92,0,0,0-.06,2.65,2.23,2.23,0,0,0,2.14,1.13h3.78q3.33,0,5.39-3.78Z"/>
    <path class="cls-1" d="M93.19,63.83h-15l-1.63,3.73a2.92,2.92,0,0,0-.06,2.65,2.23,2.23,0,0,0,2.14,1.13h3.78q3.74,0,5.38-3.78h3.74q-4.14,7.52-10.75,7.51H73.29A4.57,4.57,0,0,1,69,72.87q-1.27-2.2.09-5.31L74,56.31A12.49,12.49,0,0,1,78.5,51a11,11,0,0,1,6.25-2.21h7.51A4.52,4.52,0,0,1,96.56,51a5.69,5.69,0,0,1-.09,5.26ZM79.84,60.09h7.51L89,56.31a2.85,2.85,0,0,0,0-2.63,2.3,2.3,0,0,0-2.2-1.1,5.45,5.45,0,0,0-3.11,1.1,6.27,6.27,0,0,0-2.25,2.63Z"/>
    <path class="cls-1" d="M103.31,75.08H95.79l11.45-26.23h7.51l-3.26,7.47a16.34,16.34,0,0,1,4.76-5.6,10.28,10.28,0,0,1,6-1.87H126l-3.26,7.47h-7.51a5.45,5.45,0,0,0-3.11,1.1,6.35,6.35,0,0,0-2.27,2.68Z"/>
    <path class="cls-1" d="M125.81,75.08h-7.51l11.45-26.23h7.51L134,56.31a16.34,16.34,0,0,1,4.76-5.6,10.28,10.28,0,0,1,6-1.87h3.74l-3.26,7.47h-7.51a5.45,5.45,0,0,0-3.11,1.1,6.35,6.35,0,0,0-2.27,2.68Z"/>
    <path class="cls-1" d="M162.37,60.09,164,56.31a2.85,2.85,0,0,0,0-2.63,2.3,2.3,0,0,0-2.2-1.1h-3.74q-3.33,0-5.37,3.73H149q4.16-7.47,10.77-7.47h7.51a4.53,4.53,0,0,1,4.3,2.21,5.7,5.7,0,0,1-.09,5.26l-8.19,18.77h-7.47l1.63-3.73q-2.08,3.74-5.41,3.73h-3.74A4.57,4.57,0,0,1,144,72.87q-1.27-2.2.09-5.31a12.5,12.5,0,0,1,4.53-5.27,11,11,0,0,1,6.25-2.21Zm-1.63,3.74H157a5.45,5.45,0,0,0-3.11,1.1,6.28,6.28,0,0,0-2.25,2.63,2.92,2.92,0,0,0-.06,2.65,2.23,2.23,0,0,0,2.14,1.13,5.48,5.48,0,0,0,3.17-1.12,6.39,6.39,0,0,0,2.26-2.65Z"/>
    <path class="cls-1" d="M191.42,45.06l1.63-3.73h7.51l-1.63,3.73Z"/><path class="cls-1" d="M220.72,63.83h-15l-1.63,3.73a2.92,2.92,0,0,0-.06,2.65,2.23,2.23,0,0,0,2.14,1.13H210q3.74,0,5.38-3.78h3.74q-4.14,7.52-10.75,7.51h-7.51a4.57,4.57,0,0,1-4.32-2.21q-1.27-2.2.09-5.31l4.91-11.25A12.49,12.49,0,0,1,206,51a11,11,0,0,1,6.25-2.21h7.51a4.52,4.52,0,0,1,4.3,2.21,5.69,5.69,0,0,1-.09,5.26Zm-13.35-3.74h7.51l1.65-3.78a2.85,2.85,0,0,0,0-2.63,2.3,2.3,0,0,0-2.2-1.1,5.45,5.45,0,0,0-3.11,1.1A6.27,6.27,0,0,0,209,56.31Z"/>
    <path class="cls-1" d="M230.84,75.08h-7.51l11.45-26.23h7.51L239,56.31a16.34,16.34,0,0,1,4.76-5.6,10.28,10.28,0,0,1,6-1.87h3.74l-3.26,7.47h-7.51a5.45,5.45,0,0,0-3.11,1.1,6.35,6.35,0,0,0-2.27,2.68Z"/>
    <path class="cls-1" d="M245.82,75.08l11.45-26.23h7.51L253.34,75.08Zm13.1-30,1.63-3.73h7.51l-1.63,3.73Z"/>
    <path class="cls-1" d="M282.38,60.09,284,56.31a2.85,2.85,0,0,0,0-2.63,2.3,2.3,0,0,0-2.2-1.1h-3.74q-3.33,0-5.37,3.73H269q4.16-7.47,10.77-7.47h7.51a4.53,4.53,0,0,1,4.3,2.21,5.7,5.7,0,0,1-.09,5.26l-8.19,18.77h-7.47l1.63-3.73q-2.08,3.74-5.41,3.73h-3.74A4.57,4.57,0,0,1,264,72.87q-1.27-2.2.09-5.31a12.5,12.5,0,0,1,4.53-5.27,11,11,0,0,1,6.25-2.21Zm-1.63,3.74H277a5.45,5.45,0,0,0-3.11,1.1,6.28,6.28,0,0,0-2.25,2.63,2.92,2.92,0,0,0-.06,2.65,2.23,2.23,0,0,0,2.14,1.13,5.48,5.48,0,0,0,3.17-1.12,6.39,6.39,0,0,0,2.26-2.65Z"/>
    <path class="cls-3" d="M310.35,57.44,290.06,35.25a3.17,3.17,0,0,0-2.34-1H267.29l13,6.34h6.08l17.39,19-17.39,19H98.17a3.17,3.17,0,0,0-2.7,1.51A45.27,45.27,0,1,1,96.21,34h7.18A51.59,51.59,0,1,0,99.9,84.94H287.72a3.17,3.17,0,0,0,2.34-1l20.29-22.19A3.17,3.17,0,0,0,310.35,57.44Z"/>
    <path class="cls-2" d="M190,49h8L184.84,78.08a12.62,12.62,0,0,1-4.54,5.29A11,11,0,0,1,174,85.59h-3.74q-6.66,0-4.23-7.51h3.74q-1.27,3.73,2.15,3.73a5.45,5.45,0,0,0,3.11-1.1,6.28,6.28,0,0,0,2.25-2.63Z"/>
<script>
</script>
</svg>