<svg xmlns="http://www.w3.org/2000/svg" viewBox="0 0 758 524"><defs></defs><title>rescer</title><g id="puerta"><polygon id="puerta-2" data-name="puerta" class="cls-1" points="248 467.5 25.5 493.5 25.5 21.5 243.58 34.5 248 467.5"/></g><g id="Layer_4" data-name="Layer 4"><polygon class="cls-2" points="121.5 257.5 48.5 261.5 48.5 124.5 121.5 121.5 121.5 257.5"/><polygon class="cls-2" points="225.5 253.5 151.86 257.5 151.86 120.5 225.5 116.5 225.5 253.5"/><polygon class="cls-2" points="121.5 430.5 48.5 441.5 48.5 304.5 121.5 299.5 121.5 430.5"/><polygon class="cls-2" points="225.5 419.5 151.5 426.5 151.86 295.5 225.5 289.5 225.5 419.5"/><polygon class="cls-2" points="121.29 104.39 48.5 106 49 40 121 44 121.29 104.39"/><polygon class="cls-2" points="225 102.77 151.56 104.39 152 44 225 47.5 225 102.77"/><polygon class="cls-1" points="114.38 245.09 54.92 248.35 54.92 136.76 114.38 134.32 114.38 245.09"/><polygon class="cls-1" points="219.08 237.83 159.1 241.09 159.1 129.5 219.08 126.24 219.08 237.83"/><polygon class="cls-1" points="114.38 424 54.92 432.96 54.92 321.37 114.38 317.3 114.38 424"/><polygon class="cls-1" points="219.08 411.04 158.81 416.74 159.1 310.04 219.08 305.15 219.08 411.04"/><polygon class="cls-1" points="114.21 100.38 54.92 101.69 55 46 114 49 114.21 100.38"/><polygon class="cls-1" points="218.68 99.06 158.86 100.38 159 51 218.68 54.04 218.68 99.06"/></g><g id="Layer_3" data-name="Layer 3"><polygon id="puerta-3" data-name="puerta" class="cls-3" points="754 376 247.5 467.5 243.5 34.5 25.5 21.5 25.5 493.5 0 497 0 469 7 468 6 10.5 253.5 21.5 258.5 434.5 754 376"/></g><g id="Layer_5" data-name="Layer 5"><polygon class="cls-4" points="224 285 243 283 243 256 224 258 224 285"/><polygon class="cls-5" points="241 274 210 279 210 270 241 268 241 274"/><rect class="cls-6" x="233" y="268" width="6" height="5"/><polygon class="cls-6" points="240 276 209 281 209 272 240 270 240 276"/></g><g id="Layer_6" data-name="Layer 6"><path class="cls-7" d="M409,8,379.5,32.5l-5,14v19l-3,6,13,14v16l-9,6,13,12v11l-16,18,4,11v21l-7,5v7l6,7v15l-9,15v40h-21c-1.51,2.13,6,13.77,5,17-5,9-49,36-49,72-1,22-1,58,0,75,5,18,15.05,26.71,23,30,14,6,56.13,26.56,76,31,4.64,1,14.42,1.24,19,0,20.72-5.63,62.92-24,80-37,10-6,14.57-18.37,17-26,2-14,0-42,0-81,0-13.58-58-60-46-67-.1-2.91,8.59-10.7,7-14-16.23-.78-9,0-30,0-1.2-83.09-1-224-1-224L409,8M328.5,426.5c-1-11-2-34,2-43,1-4,60,0,60,0s-32,36-46,52C334.5,437.5,328.5,428.5,328.5,426.5Zm127,22c-28,25-74,20-95-2-5-4,21-27,41-46,2.15-.66,7-1,9,0C423.5,410.5,458.5,445.5,455.5,448.5Zm30.11-22c0,2-6,11-16,9-14-16-46-52-46-52s59-4,60,0C487.61,392.5,486.61,415.5,485.61,426.5Z"/></g></svg>